<svg width="40" height="40" viewBox="0 0 40 40" fill="none" xmlns="http://www.w3.org/2000/svg">
<path d="M20.0001 0.493408C15.251 0.493605 10.657 2.18364 7.03998 5.2611C3.42299 8.33857 1.01906 12.6027 0.258321 17.2904C-0.502415 21.9781 0.42969 26.7836 2.88785 30.8469C5.34602 34.9103 9.16983 37.9664 13.6751 39.4684C14.6751 39.6434 15.0501 39.0434 15.0501 38.5184C15.0501 38.0434 15.0251 36.4684 15.0251 34.7934C10.0001 35.7184 8.70005 33.5685 8.30005 32.4435C7.85621 31.3493 7.15261 30.3797 6.25005 29.6184C5.55005 29.2434 4.55005 28.3184 6.22503 28.2934C6.86461 28.3628 7.47803 28.5854 8.01332 28.9422C8.5486 29.2991 8.98998 29.7797 9.30005 30.3434C9.5736 30.8348 9.94141 31.2674 10.3824 31.6164C10.8235 31.9654 11.329 32.2239 11.8701 32.3772C12.4112 32.5305 12.9773 32.5755 13.5358 32.5096C14.0943 32.4438 14.6344 32.2683 15.125 31.9934C15.2116 30.9766 15.6647 30.026 16.4001 29.3185C11.9501 28.8185 7.30005 27.0934 7.30005 19.4435C7.27195 17.4558 8.00543 15.5326 9.35005 14.0685C8.73862 12.3409 8.81016 10.445 9.55005 8.76847C9.55005 8.76847 11.225 8.24345 15.0501 10.8185C18.3226 9.91841 21.7775 9.91841 25.0501 10.8185C28.875 8.21847 30.5501 8.76847 30.5501 8.76847C31.29 10.445 31.3616 12.3409 30.7501 14.0685C32.0987 15.5301 32.8328 17.4549 32.8001 19.4435C32.8001 27.1184 28.125 28.8185 23.6751 29.3185C24.1524 29.8022 24.52 30.3831 24.7529 31.0215C24.9858 31.6599 25.0787 32.341 25.0251 33.0185C25.0251 35.6935 25 37.8434 25 38.5185C25 39.0435 25.375 39.6685 26.375 39.4685C30.8724 37.9542 34.6852 34.8909 37.1329 30.8255C39.5806 26.7601 40.5038 21.9571 39.7378 17.2739C38.9718 12.5907 36.5664 8.33215 32.951 5.25843C29.3356 2.18471 24.7455 0.495878 20.0001 0.493408Z" fill="white"/>
</svg>
