<svg width="48" height="48" viewBox="0 0 48 48" fill="none" xmlns="http://www.w3.org/2000/svg">
<path d="M44.1834 0.000335589H3.52801C3.07101 -0.00601141 2.61723 0.0777285 2.19259 0.246773C1.76795 0.415818 1.38077 0.666856 1.05316 0.98555C0.725551 1.30425 0.46393 1.68435 0.283238 2.10417C0.102545 2.52398 0.00632109 2.97528 6.10352e-05 3.43229V44.5677C0.00632109 45.0247 0.102545 45.476 0.283238 45.8958C0.46393 46.3156 0.725551 46.6957 1.05316 47.0144C1.38077 47.3331 1.76795 47.5842 2.19259 47.7532C2.61723 47.9223 3.07101 48.006 3.52801 47.9997H44.1834C44.6404 48.006 45.0942 47.9223 45.5189 47.7532C45.9435 47.5842 46.3307 47.3331 46.6583 47.0144C46.9859 46.6957 47.2475 46.3156 47.4282 45.8958C47.6089 45.476 47.7051 45.0247 47.7114 44.5677V3.43229C47.7051 2.97528 47.6089 2.52398 47.4282 2.10417C47.2475 1.68435 46.9859 1.30425 46.6583 0.98555C46.3307 0.666856 45.9435 0.415818 45.5189 0.246773C45.0942 0.0777285 44.6404 -0.00601141 44.1834 0.000335589ZM14.4719 40.1758H7.27196V18.5761H14.4719V40.1758ZM10.8719 15.5521C9.87895 15.5521 8.92666 15.1577 8.22454 14.4555C7.52241 13.7534 7.12796 12.8011 7.12796 11.8082C7.12796 10.8152 7.52241 9.86293 8.22454 9.1608C8.92666 8.45867 9.87895 8.06422 10.8719 8.06422C11.3992 8.00443 11.9331 8.05667 12.4388 8.21754C12.9445 8.37841 13.4104 8.64427 13.8062 8.99772C14.202 9.35116 14.5187 9.78423 14.7355 10.2685C14.9524 10.7529 15.0645 11.2775 15.0645 11.8082C15.0645 12.3388 14.9524 12.8635 14.7355 13.3478C14.5187 13.8321 14.202 14.2652 13.8062 14.6186C13.4104 14.9721 12.9445 15.2379 12.4388 15.3988C11.9331 15.5597 11.3992 15.6119 10.8719 15.5521ZM40.4395 40.1758H33.2396V28.5839C33.2396 25.68 32.2076 23.784 29.5916 23.784C28.7821 23.7899 27.9937 24.0439 27.3329 24.5116C26.672 24.9793 26.1705 25.6384 25.8957 26.4C25.7079 26.9641 25.6265 27.5581 25.6557 28.1519V40.1518H18.4558C18.4558 40.1518 18.4558 20.52 18.4558 18.5521H25.6557V21.6C26.3098 20.4651 27.2611 19.5301 28.4071 18.8958C29.5532 18.2614 30.8506 17.9517 32.1596 18.0001C36.9595 18.0001 40.4395 21.096 40.4395 27.7439V40.1758Z" fill="white"/>
</svg>
